HIERARCHY
ROOT Hips
{
	OFFSET	1.0698	1.7056	0.4759
	CHANNELS 6 Xposition Yposition Zposition Zrotation Xrotation Yrotation
	JOINT Spine0
	{
		OFFSET	0.0000	0.2768	0.0473
		CHANNELS 3 Zrotation Xrotation Yrotation
		JOINT Spine1
		{
			OFFSET	0.0000	0.4876	-0.0050
			CHANNELS 3 Zrotation Xrotation Yrotation
			JOINT Neck
			{
				OFFSET	0.0000	0.4163	-0.1306
				CHANNELS 3 Zrotation Xrotation Yrotation
				JOINT Head
				{
					OFFSET	0.0000	0.1302	0.0278
					CHANNELS 3 Zrotation Xrotation Yrotation
					End Site 
					{
						OFFSET	0.0000	0.7443	0.0037
					}
				}
			}
			JOINT LeftShoulder
			{  
				OFFSET	0.1842	0.3056	-0.1138
				CHANNELS 3 Zrotation Xrotation Yrotation
				JOINT LeftUpArm
				{
					OFFSET	0.3697	-0.0334	-0.0538
					CHANNELS 3 Zrotation Xrotation Yrotation
					JOINT LeftLowArm
					{
						OFFSET	0.8306	0.0000	0.0000
						CHANNELS 3 Zrotation Xrotation Yrotation
						JOINT LeftHand
						{
							OFFSET	0.8362	0.0000	0.0000
							CHANNELS 3 Zrotation Xrotation Yrotation
							JOINT LeftFinger
							{
								OFFSET	0.3140	0.0147	0.0814
								CHANNELS 3 Zrotation Xrotation Yrotation
								End Site 
								{
									OFFSET	0.1613	0.0000	0.0000
								}
							}
						}
					}
				}
			}
			JOINT RightShoulder
			{  
				OFFSET	-0.1843	0.3056	-0.1138
				CHANNELS 3 Zrotation Xrotation Yrotation
				JOINT RightUpArm
				{
					OFFSET	-0.3696	-0.0334	-0.0538
					CHANNELS 3 Zrotation Xrotation Yrotation
					JOINT RightLowArm
					{
						OFFSET	-0.8306	0.0000	0.0000
						CHANNELS 3 Zrotation Xrotation Yrotation
						JOINT RightHand
						{
							OFFSET	-0.8362	0.0000	0.0000
							CHANNELS 3 Zrotation Xrotation Yrotation
							JOINT RightFinger
							{
								OFFSET	-0.3118	0.0184	0.0812
								CHANNELS 3 Zrotation Xrotation Yrotation
								End Site 
								{
									OFFSET	-0.1665	0.0000	0.0000
								}
							}
						}
					}
				}
			}
		}
	}
	JOINT LeftUpLeg
	{
		OFFSET	0.2890	-0.0982	0.0000
		CHANNELS 3 Zrotation Xrotation Yrotation
		JOINT LeftLowLeg
		{
			OFFSET	0.0000	-1.2519	-0.0519
			CHANNELS 3 Zrotation Xrotation Yrotation
			JOINT LeftFoot
			{
				OFFSET	-0.0004	-1.1757	-0.0254
				CHANNELS 3 Zrotation Xrotation Yrotation
				JOINT LeftToe
				{
					OFFSET	0.0055	-0.3658	0.2485
					CHANNELS 3 Zrotation Xrotation Yrotation
					End Site 
					{
						OFFSET	-0.0001	0.0000	0.3810
					}
				}
			}
		}
	}

	JOINT RightUpLeg
	{
		OFFSET	-0.2890	-0.0982	0.0000
		CHANNELS 3 Zrotation Xrotation Yrotation
		JOINT RightLowLeg
		{
			OFFSET	0.0000	-1.2519	-0.0519
			CHANNELS 3 Zrotation Xrotation Yrotation
			JOINT RightFoot
			{
				OFFSET	-0.0004	-1.1757	-0.0254
				CHANNELS 3 Zrotation Xrotation Yrotation
				JOINT RightToe
				{
					OFFSET	0.0055	-0.3658	0.2485
					CHANNELS 3 Zrotation Xrotation Yrotation
					End Site 
					{
						OFFSET	0.0000	0.0000	0.3810
					}
				}
			}
		}
	}
}

MOTION
Frames:	16
Frame Time:	0.01667
-1.0877 1.6304 0.4922 -355.3808 -4.4204 -159.1792 0.0000 0.0000 0.0000 -1.2964 -354.3229 -344.6121 0.0000 0.0000 0.0000 -1.0362 -17.9721 -353.3686 0.0000 0.0000 0.0000 -7.0624 -321.4446 -84.3278 -300.2679 -54.9753 -67.1476 -331.7498 -27.0087 -344.9629 0.0000 0.0000 0.0000 0.0000 0.0000 0.0000 -330.9302 -324.8985 -278.9079 -84.3952 -33.7118 -306.3044 -32.3151 -32.9276 -8.7461 0.0000 0.0000 0.0000 -249.9431 -70.7170 -255.4169 -179.3766 -297.5013 -170.7557 -1.3356 -356.3200 -21.4792 0.0000 0.0000 0.0000 -106.0836 -76.3911 -98.0228 -176.3062 -294.4344 -164.0370 -349.2345 -359.1096 -31.1827 0.0000 0.0000 0.0000
-1.0878 1.6307 0.4921 -355.3988 -4.4350 -159.1964 0.0000 0.0000 0.0000 -1.3782 -353.8914 -344.6603 0.0000 0.0000 0.0000 -1.0117 -18.5214 -353.2252 0.0000 0.0000 0.0000 -5.8673 -321.9977 -85.0028 -300.1711 -54.7271 -66.9620 -331.8765 -26.9593 -345.9423 0.0000 0.0000 0.0000 0.0000 0.0000 0.0000 -332.5630 -325.1525 -277.7982 -83.9653 -33.3750 -306.6432 -28.9747 -32.8934 -5.0408 0.0000 0.0000 0.0000 -249.9486 -70.7091 -255.4008 -179.2515 -297.5388 -170.8405 -1.2908 -356.3503 -21.5046 0.0000 0.0000 0.0000 -106.0150 -76.4142 -97.9401 -176.1934 -294.3963 -164.1250 -349.1728 -359.1211 -31.2178 0.0000 0.0000 0.0000
-1.0893 1.6303 0.4925 -355.3694 -4.4552 -159.2000 0.0000 0.0000 0.0000 -1.4178 -354.2486 -344.7272 0.0000 0.0000 0.0000 -0.8973 -17.9281 -353.1068 0.0000 0.0000 0.0000 -4.6801 -321.7307 -85.4163 -299.9370 -54.5592 -66.6168 -331.5966 -26.7147 -346.7629 0.0000 0.0000 0.0000 0.0000 0.0000 0.0000 -333.6333 -324.9005 -277.2335 -83.4867 -32.9306 -307.0050 -25.7123 -33.0022 -1.3817 0.0000 0.0000 0.0000 -249.9299 -70.7020 -255.3686 -179.2562 -297.5306 -170.8167 -1.2796 -356.3523 -21.5310 0.0000 0.0000 0.0000 -106.1008 -76.4042 -98.0670 -176.1476 -294.3945 -164.1664 -349.1881 -359.1166 -31.2181 0.0000 0.0000 0.0000
-1.0901 1.6308 0.4925 -355.3484 -4.4850 -159.2200 0.0000 0.0000 0.0000 -1.5854 -355.3909 -344.9337 0.0000 0.0000 0.0000 -0.7474 -16.6928 -353.1158 0.0000 0.0000 0.0000 -2.9308 -320.1891 -84.9119 -299.1741 -55.2676 -65.7592 -329.4002 -27.1242 -347.6549 0.0000 0.0000 0.0000 0.0000 0.0000 0.0000 -334.9099 -323.9099 -276.8515 -83.0102 -32.0374 -307.6254 -24.0537 -34.3767 -358.4445 0.0000 0.0000 0.0000 -249.8752 -70.6769 -255.2855 -179.3073 -297.5098 -170.7639 -1.2619 -356.3101 -21.5582 0.0000 0.0000 0.0000 -106.3749 -76.4001 -98.3153 -176.1128 -294.4156 -164.1808 -349.1396 -359.1126 -31.2396 0.0000 0.0000 0.0000
-1.0904 1.6312 0.4926 -355.3402 -4.4907 -159.2231 0.0000 0.0000 0.0000 -1.4533 -355.8998 -345.1443 0.0000 0.0000 0.0000 -0.6098 -16.1522 -352.8977 0.0000 0.0000 0.0000 -3.6776 -319.3339 -83.8925 -298.4240 -55.7348 -65.2460 -329.0778 -26.1565 -347.6649 0.0000 0.0000 0.0000 0.0000 0.0000 0.0000 -335.2145 -323.2314 -277.1089 -83.0405 -32.1218 -307.8868 -24.8725 -35.2823 -358.8484 0.0000 0.0000 0.0000 -249.7838 -70.6835 -255.1967 -179.2509 -297.5451 -170.8041 -1.2338 -356.3192 -21.5676 0.0000 0.0000 0.0000 -106.4929 -76.3913 -98.4126 -176.1636 -294.4211 -164.1381 -349.1185 -359.0953 -31.2370 0.0000 0.0000 0.0000
-1.0914 1.6307 0.4929 -355.3388 -4.4761 -159.2465 0.0000 0.0000 0.0000 -1.0948 -356.0474 -345.4243 0.0000 0.0000 0.0000 -0.8313 -15.8849 -352.8125 0.0000 0.0000 0.0000 -6.9513 -318.4915 -81.2947 -297.5269 -56.2935 -65.0368 -328.4843 -27.2841 -346.2803 0.0000 0.0000 0.0000 0.0000 0.0000 0.0000 -333.5709 -322.9828 -279.5201 -83.5126 -32.7913 -307.9986 -29.4827 -34.7449 -0.5848 0.0000 0.0000 0.0000 -249.7218 -70.6777 -255.1391 -179.2873 -297.5723 -170.7699 -1.2506 -356.2589 -21.5701 0.0000 0.0000 0.0000 -106.6708 -76.3882 -98.5769 -176.2087 -294.4432 -164.1130 -349.1138 -359.0511 -31.1989 0.0000 0.0000 0.0000
-1.0920 1.6297 0.4933 -355.3239 -4.4438 -159.2585 0.0000 0.0000 0.0000 -0.6947 -355.9711 -345.5695 0.0000 0.0000 0.0000 -1.1894 -15.7754 -352.8260 0.0000 0.0000 0.0000 -9.1063 -318.3318 -79.9333 -297.7432 -56.4514 -65.5337 -327.9305 -28.0661 -344.7567 0.0000 0.0000 0.0000 0.0000 0.0000 0.0000 -332.4049 -322.8697 -280.4637 -83.7859 -33.2769 -307.5768 -31.3728 -35.2457 -2.1995 0.0000 0.0000 0.0000 -249.6757 -70.6881 -255.1268 -179.2928 -297.5937 -170.7456 -1.2517 -356.2378 -21.5717 0.0000 0.0000 0.0000 -106.6804 -76.3916 -98.6045 -176.2499 -294.4554 -164.0885 -349.1141 -359.0141 -31.1730 0.0000 0.0000 0.0000
-1.0920 1.6297 0.4933 -355.3142 -4.4235 -159.2381 0.0000 0.0000 0.0000 -0.3868 -355.7110 -345.5893 0.0000 0.0000 0.0000 -1.4933 -15.9727 -353.1300 0.0000 0.0000 0.0000 -12.0735 -318.6401 -78.2538 -298.5787 -56.6423 -66.9107 -327.3140 -28.4268 -342.0504 0.0000 0.0000 0.0000 0.0000 0.0000 0.0000 -329.8580 -323.0889 -281.8398 -84.3465 -34.1150 -306.6720 -37.5228 -35.9285 -8.8854 0.0000 0.0000 0.0000 -249.6415 -70.7048 -255.0816 -179.2618 -297.6147 -170.7822 -1.2146 -356.2380 -21.5437 0.0000 0.0000 0.0000 -106.6739 -76.3119 -98.6858 -176.0778 -294.4481 -164.2412 -349.0771 -358.9471 -31.1524 0.0000 0.0000 0.0000
-1.0924 1.6294 0.4930 -355.2736 -4.3782 -159.2059 0.0000 0.0000 0.0000 -0.0577 -355.1524 -345.3857 0.0000 0.0000 0.0000 -1.8244 -16.3978 -353.5270 0.0000 0.0000 0.0000 -12.7891 -319.2358 -78.3878 -299.3344 -56.6608 -67.6173 -327.5623 -28.0026 -341.7186 0.0000 0.0000 0.0000 0.0000 0.0000 0.0000 -329.2596 -323.6060 -282.0838 -84.6912 -34.3522 -306.3260 -40.1216 -35.8665 -12.1947 0.0000 0.0000 0.0000 -249.6319 -70.7454 -255.1023 -179.2906 -297.5935 -170.7421 -1.1925 -356.2601 -21.4982 0.0000 0.0000 0.0000 -106.5503 -76.2687 -98.6653 -176.0005 -294.4542 -164.3139 -349.0994 -358.8994 -31.1439 0.0000 0.0000 0.0000
-1.0925 1.6299 0.4941 -355.2850 -4.3434 -159.1851 0.0000 0.0000 0.0000 -0.4619 -355.5257 -344.9913 0.0000 0.0000 0.0000 -1.3620 -16.1270 -353.9036 0.0000 0.0000 0.0000 -11.6967 -319.1122 -79.2470 -300.8510 -56.5292 -68.8421 -329.2126 -27.2559 -342.9723 0.0000 0.0000 0.0000 0.0000 0.0000 0.0000 -327.6450 -323.2426 -282.2558 -85.2094 -34.7816 -306.0314 -41.7538 -34.7665 -15.1322 0.0000 0.0000 0.0000 -249.5931 -70.7747 -255.0805 -179.2044 -297.6174 -170.7992 -1.1935 -356.2902 -21.4584 0.0000 0.0000 0.0000 -106.4161 -76.2707 -98.5435 -175.9559 -294.4509 -164.3470 -349.1013 -358.8537 -31.1443 0.0000 0.0000 0.0000
-1.0921 1.6291 0.4953 -355.2891 -4.3329 -159.1738 0.0000 0.0000 0.0000 -0.7538 -355.7802 -344.8076 0.0000 0.0000 0.0000 -1.1140 -15.9759 -354.0594 0.0000 0.0000 0.0000 -9.0294 -319.1049 -81.1703 -300.9316 -56.0230 -68.7608 -331.3606 -27.8186 -345.1588 0.0000 0.0000 0.0000 0.0000 0.0000 0.0000 -327.4166 -322.8375 -281.9927 -85.3979 -34.8303 -306.0817 -41.0953 -34.2445 -14.6786 0.0000 0.0000 0.0000 -249.5692 -70.7834 -255.0546 -179.2352 -297.6092 -170.7648 -1.1886 -356.3019 -21.4474 0.0000 0.0000 0.0000 -106.4397 -76.2796 -98.5733 -176.0323 -294.4700 -164.2820 -349.0936 -358.8387 -31.1456 0.0000 0.0000 0.0000
-1.0921 1.6291 0.4953 -355.2840 -4.3095 -159.1592 0.0000 0.0000 0.0000 -1.1661 -355.8545 -344.5443 0.0000 0.0000 0.0000 -0.9222 -15.9264 -354.2177 0.0000 0.0000 0.0000 -5.3104 -319.4438 -83.8347 -300.8336 -54.9234 -68.1754 -332.6981 -28.0041 -347.4005 0.0000 0.0000 0.0000 0.0000 0.0000 0.0000 -328.8556 -322.1892 -280.4511 -85.8608 -34.3624 -306.5980 -38.0420 -33.7560 -11.5048 0.0000 0.0000 0.0000 -249.4944 -70.7905 -255.0054 -179.2090 -297.5957 -170.7753 -1.1788 -356.2621 -21.4367 0.0000 0.0000 0.0000 -106.3041 -76.2735 -98.4730 -175.9648 -294.4734 -164.3285 -349.1133 -358.8438 -31.1525 0.0000 0.0000 0.0000
-1.0915 1.6284 0.4965 -355.3230 -4.3096 -159.1759 0.0000 0.0000 0.0000 -1.2342 -355.9753 -344.6046 0.0000 0.0000 0.0000 -1.1286 -15.6953 -354.0625 0.0000 0.0000 0.0000 -3.6942 -319.4224 -84.8240 -300.7116 -54.4536 -67.6219 -332.6126 -27.8055 -348.3609 0.0000 0.0000 0.0000 0.0000 0.0000 0.0000 -331.8218 -321.8629 -278.4360 -84.8236 -33.7157 -307.4603 -31.9152 -34.2988 -4.8212 0.0000 0.0000 0.0000 -249.5230 -70.7751 -255.0137 -179.1727 -297.6081 -170.7894 -1.1659 -356.2593 -21.4709 0.0000 0.0000 0.0000 -106.2551 -76.2879 -98.3973 -175.9155 -294.4655 -164.3562 -349.0929 -358.8706 -31.1813 0.0000 0.0000 0.0000
-1.0915 1.6284 0.4965 -355.2840 -4.3247 -159.1786 0.0000 0.0000 0.0000 -0.8917 -355.4699 -344.8723 0.0000 0.0000 0.0000 -1.6058 -16.1503 -353.7058 0.0000 0.0000 0.0000 -1.3845 -319.6182 -85.8892 -300.5843 -54.8987 -66.7534 -329.0656 -27.7160 -347.5471 0.0000 0.0000 0.0000 0.0000 0.0000 0.0000 -335.1359 -322.1315 -276.7189 -83.9360 -32.9694 -308.4066 -28.7962 -34.7166 -0.4972 0.0000 0.0000 0.0000 -249.3256 -70.7692 -254.8478 -179.1572 -297.6115 -170.7751 -1.1764 -356.1710 -21.4992 0.0000 0.0000 0.0000 -106.3153 -76.3088 -98.4782 -175.9368 -294.4511 -164.3429 -349.1104 -358.8917 -31.1987 0.0000 0.0000 0.0000
-1.0924 1.6283 0.4967 -355.2717 -4.3409 -159.1930 0.0000 0.0000 0.0000 -0.7689 -355.8908 -344.9836 0.0000 0.0000 0.0000 -1.6509 -15.5732 -353.5726 0.0000 0.0000 0.0000 -0.7212 -318.8544 -85.7331 -300.7611 -55.7912 -66.3470 -327.1843 -27.2036 -347.6055 0.0000 0.0000 0.0000 0.0000 0.0000 0.0000 -335.6330 -321.5410 -276.9391 -84.2295 -33.2498 -309.1352 -29.6075 -35.3930 -0.9550 0.0000 0.0000 0.0000 -249.2855 -70.7469 -254.7856 -179.1946 -297.6063 -170.7398 -1.1244 -356.1175 -21.5490 0.0000 0.0000 0.0000 -106.3993 -76.2994 -98.5776 -175.9037 -294.4533 -164.3588 -349.1357 -358.8926 -31.2101 0.0000 0.0000 0.0000
-1.0924 1.6283 0.4967 -355.2736 -4.3782 -159.2059 0.0000 0.0000 0.0000 -0.5533 -356.6009 -345.2802 0.0000 0.0000 0.0000 -1.6798 -14.8842 -353.4153 0.0000 0.0000 0.0000 -4.3589 -316.8832 -82.1363 -298.2726 -57.3792 -65.0647 -331.0710 -28.2720 -347.7839 0.0000 0.0000 0.0000 0.0000 0.0000 0.0000 -335.4525 -320.7578 -277.6539 -84.6839 -32.9673 -309.8689 -32.2379 -36.1113 -2.1064 0.0000 0.0000 0.0000 -249.1779 -70.7202 -254.6289 -179.2696 -297.6378 -170.6862 -1.1172 -356.0671 -21.5647 0.0000 0.0000 0.0000 -106.6818 -76.2853 -98.8257 -175.9324 -294.4614 -164.3419 -349.0978 -358.8936 -31.2565 0.0000 0.0000 0.0000
